<svg width="100" height="143" viewBox="0 0 100 143" fill="none" xmlns="http://www.w3.org/2000/svg">
<path d="M39.7713 14.8797C39.7713 6.66016 46.5119 0 54.8308 0C63.1497 0 69.8903 6.66016 69.8903 14.8797C69.8903 23.0993 63.1497 29.7594 54.8308 29.7594C46.5119 29.7594 39.7713 23.0993 39.7713 14.8797ZM95.0156 72.363L79.2031 64.5541C79.2031 64.5541 65.5411 43.175 65.2339 42.8238C61.2281 38.3004 55.4452 35.7113 49.3672 35.7113C41.6929 35.7113 34.0125 37.5028 27.1514 40.8954L11.9352 48.4126C8.07398 50.3232 5.22472 53.7812 4.11634 57.9118L0.303268 72.119C-0.97378 76.8864 1.89958 81.7729 6.71863 83.0347C11.5497 84.3025 16.4892 81.4634 17.7663 76.696L21.23 63.7923L32.2596 58.3404L28.2718 75.1842C26.1575 84.112 30.3139 93.5101 38.3858 98.0394L62.3365 111.479C63.2762 112.009 63.8605 113.002 63.8605 114.074V133.929C63.8605 138.863 67.9085 142.857 72.8962 142.857C77.8839 142.857 81.9319 138.863 81.9319 133.929V114.074C81.9319 106.598 77.8418 99.6584 71.2638 95.9622L54.8549 86.7547L59.9691 67.917L65.2399 76.1901C66.1194 77.5709 67.3724 78.6899 68.8482 79.422L86.9196 88.3498C88.2208 88.9866 89.5942 89.2961 90.9556 89.2961C94.2687 89.2961 97.4613 87.4868 99.0456 84.3561C101.274 79.9457 99.4672 74.5831 95.0036 72.3749L95.0156 72.363ZM32.8981 104.89C28.0068 103.932 23.26 107.14 22.3323 111.985L22.0974 113.175L13.6219 129.924C11.3931 134.334 13.2002 139.697 17.6639 141.905C18.959 142.542 20.3385 142.851 21.6998 142.851C25.0129 142.851 28.2056 141.042 29.7898 137.911L38.8255 120.055C39.199 119.323 39.4641 118.544 39.6147 117.734L40.0785 115.33C41.0182 110.491 37.8015 105.813 32.8981 104.89Z" fill="white"/>
</svg>
