<svg width="100" height="100" viewBox="0 0 100 100" fill="none" xmlns="http://www.w3.org/2000/svg">
<rect width="100" height="100" rx="50" fill="#BC2B5D"/>
<path d="M62.6241 27.2228L62.6241 27.2227L62.6209 27.2227C60.3376 27.2606 58.1042 27.9407 56.1464 29.1941C54.9137 29.9833 53.2162 30.3798 51.5151 30.3798C49.8141 30.3798 48.1166 29.9833 46.8838 29.1941C44.9261 27.9407 42.6927 27.2606 40.4093 27.2227L40.4093 27.2226L40.4062 27.2228C36.767 27.3915 33.3391 29.0901 30.871 31.9463C28.4032 34.8021 27.0955 38.5834 27.2325 42.4639C27.2328 47.3776 29.6559 52.512 33.0874 57.3214C36.5198 62.1321 40.9654 66.6235 45.0197 70.2521C46.8384 71.8828 49.1384 72.7772 51.5151 72.7772C53.8918 72.7772 56.1919 71.8828 58.0106 70.2521C62.0649 66.6235 66.5105 62.1321 69.9429 57.3214C73.3743 52.512 75.7975 47.3777 75.7978 42.4639C75.9348 38.5834 74.627 34.8022 72.1592 31.9463C69.6912 29.0901 66.2633 27.3915 62.6241 27.2228ZM47.6814 66.8811L47.6814 66.881C42.4957 62.2386 38.4171 57.6916 35.6354 53.5252C32.8529 49.3577 31.3713 45.576 31.3713 42.463H31.3713L31.3712 42.4605C31.2338 39.7464 32.1078 37.0849 33.8018 35.0565C35.495 33.0291 37.8699 31.7987 40.4085 31.6321C42.9471 31.7987 45.322 33.0291 47.0152 35.0565C48.7092 37.0849 49.5832 39.7464 49.4458 42.4605L49.4457 42.4605V42.463C49.4457 43.0467 49.663 43.6071 50.0507 44.0207C50.4385 44.4345 50.9652 44.6676 51.5151 44.6676C52.0651 44.6676 52.5917 44.4345 52.9795 44.0207C53.3672 43.6071 53.5845 43.0467 53.5845 42.463H53.5846L53.5845 42.4605C53.447 39.7464 54.321 37.0849 56.0151 35.0565C57.7083 33.0291 60.0832 31.7987 62.6218 31.6321C65.1604 31.7987 67.5352 33.0291 69.2285 35.0565C70.9225 37.0849 71.7965 39.7464 71.6591 42.4605L71.659 42.4605V42.463C71.659 45.5757 70.1777 49.3569 67.3958 53.5228C64.6146 57.6876 60.5368 62.2319 55.3522 66.8695C55.3452 66.8757 55.3398 66.8836 55.3364 66.8923C54.2648 67.8497 52.9121 68.3742 51.5151 68.3742C50.1128 68.3742 48.755 67.8456 47.6814 66.8811Z" fill="white" stroke="white" stroke-width="0.1"/>
</svg>
