<svg width="100" height="100" viewBox="0 0 100 100" fill="none" xmlns="http://www.w3.org/2000/svg">
<rect width="100" height="100" rx="50" fill="#2D5646"/>
<path d="M49.9981 32.197V43.5606C49.9957 45.7428 49.3314 47.8574 48.1172 49.5478V49.5478C46.0889 52.3715 43.3322 55.2999 43.3322 58.7766V73.8636C43.3322 74.3659 43.1567 74.8477 42.8441 75.2029C42.5316 75.558 42.1077 75.7576 41.6658 75.7576C41.2238 75.7576 40.7999 75.558 40.4874 75.2029C40.1749 74.8477 39.9993 74.3659 39.9993 73.8636V58.7766C39.9993 55.3 37.2426 52.3715 35.2144 49.5478V49.5478C34.0001 47.8574 33.3358 45.7428 33.3334 43.5606V32.197C33.3334 31.6947 33.5089 31.2129 33.8215 30.8578C34.134 30.5026 34.5579 30.303 34.9999 30.303C35.4418 30.303 35.8657 30.5026 36.1782 30.8578C36.4908 31.2129 36.6663 31.6947 36.6663 32.197V43.5606C36.6706 44.7316 36.9931 45.8724 37.5897 46.8271V46.8271C38.4084 48.1372 39.9993 47.2111 39.9993 45.6663V32.197C39.9993 31.6947 40.1749 31.2129 40.4874 30.8578C40.7999 30.5026 41.2238 30.303 41.6658 30.303C42.1077 30.303 42.5316 30.5026 42.8441 30.8578C43.1567 31.2129 43.3322 31.6947 43.3322 32.197V45.6663C43.3322 47.2111 44.9231 48.1372 45.7418 46.8271V46.8271C46.3384 45.8724 46.6609 44.7316 46.6652 43.5606V32.197C46.6652 31.6947 46.8408 31.2129 47.1533 30.8578C47.4658 30.5026 47.8897 30.303 48.3317 30.303C48.7736 30.303 49.1975 30.5026 49.51 30.8578C49.8226 31.2129 49.9981 31.6947 49.9981 32.197ZM66.6629 49.2424C66.5884 52.8418 65.8004 56.3756 64.3578 59.581C63.7854 60.8526 63.1159 62.0596 62.3587 63.1888C60.1991 66.4098 58.3305 69.9857 58.3305 73.8636V73.8636C58.3305 74.3659 58.1549 74.8477 57.8424 75.2029C57.5299 75.558 57.106 75.7576 56.664 75.7576C56.2221 75.7576 55.7982 75.558 55.4857 75.2029C55.1731 74.8477 54.9976 74.3659 54.9976 73.8636V34.0909C54.9826 33.3793 55.1537 32.6786 55.4892 32.0775C55.8247 31.4764 56.3095 31.0019 56.8823 30.714C57.5403 30.4098 58.2621 30.33 58.9593 30.4844C59.6566 30.6388 60.2992 31.0206 60.8086 31.5833C64.6737 36.4033 66.7685 42.7222 66.6629 49.2424ZM63.3299 49.2424C63.3339 48.7818 63.3252 48.3224 63.304 47.8649C63.0793 43.0012 58.3305 44.1092 58.3305 48.9781V48.9781C58.3305 53.7188 63.0148 54.9075 63.2945 50.175C63.3128 49.8652 63.3247 49.5543 63.3299 49.2424Z" fill="white"/>
</svg>
