<svg width="100" height="100" viewBox="0 0 100 100" fill="none" xmlns="http://www.w3.org/2000/svg">
<rect width="100" height="100" rx="50" fill="#BC2B5D"/>
<path d="M72.6954 48.3754C72.6943 48.3754 72.6934 48.3745 72.6933 48.3735C72.4996 46.4578 71.4238 44.7809 69.8769 43.6999C68.4237 42.6844 67.187 40.6701 67.0118 38.9058V38.9058C66.6746 35.5688 63.6595 32.9552 60.1463 32.9552V32.9552C58.2888 32.9552 56.6359 31.8909 55.4471 30.4635C54.3924 29.1971 53.0966 28.0945 51.62 27.5045C50.6787 27.1276 49.6295 27.2128 48.7545 27.7412C47.87 28.2734 47.2791 29.2015 47.1693 30.2261V30.2261C46.9844 31.9295 45.3593 32.9552 43.6459 32.9552H39.8531C36.3399 32.9552 33.3248 35.5688 32.9877 38.9077V38.9077C32.815 40.6539 31.6651 42.6566 30.2117 43.6397C28.6167 44.7186 27.5029 46.424 27.306 48.3773C27.1185 50.2484 27.7321 52.1158 28.9859 53.5022V53.5022C30.5633 55.2462 32.4966 56.975 32.8705 59.2967L33.751 64.7633C34.4953 69.3788 38.427 72.7272 43.1012 72.7272H56.9021C61.5762 72.7272 65.508 69.3769 66.2523 64.7615L67.1328 59.2945C67.5067 56.973 69.4384 55.2426 71.0174 53.5003V53.5003C72.2707 52.1144 72.8825 50.2478 72.6975 48.3773C72.6973 48.3762 72.6964 48.3754 72.6954 48.3754V48.3754ZM62.5099 64.1592C62.0649 66.9281 59.7051 68.9375 56.9002 68.9375H43.0993C40.2963 68.9375 37.9346 66.9281 37.4895 64.1592V64.1592C36.7733 59.712 40.2078 55.6802 44.7123 55.6802H55.2856C59.7903 55.6802 63.2252 59.7116 62.5099 64.1592V64.1592ZM68.2068 50.9558C68.2056 50.9564 68.2044 50.9573 68.2035 50.9583C67.6676 51.552 66.9334 51.881 66.1387 51.8923C66.0932 51.8923 33.9063 51.8923 33.8627 51.8923C33.0673 51.881 32.3324 51.5514 31.7965 50.9568C31.251 50.3545 30.9953 49.5723 31.0768 48.7523C31.2188 47.3261 32.5805 46.2106 34.1733 46.2106H50.0007C51.048 46.2106 51.8946 45.3622 51.8946 44.3167C51.8946 43.2713 51.048 42.4228 50.0007 42.4228H39.5842C38.7717 42.4228 38.0236 42.0914 37.4782 41.4872C36.9327 40.885 36.6771 40.1028 36.7585 39.2827C36.9005 37.8566 38.2623 36.7411 39.855 36.7411H47.6276C48.281 36.7411 48.8852 36.4059 49.2337 35.8529V35.8529C50.446 33.9174 52.8739 32.9535 53.927 34.9799C54.0349 35.1875 54.1368 35.3987 54.2317 35.6123C54.5347 36.2979 55.2146 36.7392 55.9627 36.7392H60.1501C61.7429 36.7392 63.1046 37.8547 63.2467 39.2808C63.3982 40.7959 63.0724 41.5876 60.6615 42.5573C59.8206 42.8963 59.3358 43.7845 59.51 44.6747C59.6823 45.5648 60.4626 46.2087 61.3679 46.2087H65.8319C67.4246 46.2087 68.7863 47.3242 68.9284 48.7504C69.0098 49.5697 68.7546 50.3512 68.2101 50.9533C68.2092 50.9543 68.2081 50.9552 68.2068 50.9558V50.9558Z" fill="white"/>
</svg>
